<?xml version="1.0" encoding="UTF-8"?>
<svg id="Calque_2" data-name="Calque 2" xmlns="http://www.w3.org/2000/svg" viewBox="0 0 377.39 160.97">
  <defs>
    <style>
      .cls-1 {
        fill: #fff;
      }

      .cls-2 {
        fill: #a7a9ac;
      }
    </style>
  </defs>
  <g id="Layer_1" data-name="Layer 1">
    <g>
      <rect x="2" y="2" width="373.39" height="156.97" rx="14.1" ry="14.1"/>
      <path class="cls-2" d="m361.29,0H16.1C7.21,0,0,7.21,0,16.1v128.77c0,8.89,7.21,16.1,16.1,16.1h345.19c8.89,0,16.1-7.21,16.1-16.1V16.1c0-8.89-7.21-16.1-16.1-16.1Zm14.1,144.87c0,7.77-6.33,14.1-14.1,14.1H16.1c-7.77,0-14.1-6.33-14.1-14.1V16.1c0-7.77,6.33-14.1,14.1-14.1h345.19c7.77,0,14.1,6.33,14.1,14.1v128.77Z"/>
      <path class="cls-1" d="m85.4,115.11l43.99,11.89,11.79-43.99-43.99-11.89-11.79,43.99Zm23.4-23.88l12.28,3.38-3.29,12.28-12.28-3.38,3.29-12.28Zm-26.2,1.16c0-11.12-7.06-17.3-18.18-17.3h-26.88v48.34h14.69v-13.63h6.96l7.35,13.63h16.15l-8.7-15.95c5.32-2.8,8.6-7.93,8.6-15.08Zm-19.92,4.83h-10.44v-9.57h10.44c3.09,0,5.03,1.74,5.03,4.74s-1.93,4.83-5.03,4.83Zm200.8-23.11c-13.92,0-25.14,11.21-25.14,25.14s11.21,25.14,25.14,25.14,25.14-11.21,25.14-25.14-11.21-25.14-25.14-25.14Zm0,35.87c-5.7,0-10.44-4.74-10.44-10.73s4.74-10.73,10.44-10.73,10.44,4.74,10.44,10.73-4.74,10.73-10.44,10.73Zm76.37,13.44h-17.5l-8.7-14.21-8.99,14.21h-17.79l16.53-24.36-15.18-23.98h17.5l8.02,13.05,7.73-13.05h17.4l-14.89,23.4,15.86,24.94Zm-126.36-14.31h21.08v14.31h-35.77v-48.34h14.69v34.03Zm-28.52-9.86c3.67-2.42,5.61-5.9,5.61-11.12,0-8.31-5.9-13.05-15.08-13.05h-27.84v48.34h28.81c9.18,0,15.08-4.35,15.08-13.63,0-5.03-2.42-8.7-6.57-10.54Zm-23.01-12.57h9.57c2.61,0,4.16,1.16,4.16,3.48,0,2.51-1.55,3.67-4.16,3.67h-9.57v-7.15Zm10.73,25.14h-10.73v-7.35h10.73c2.51,0,3.96,1.16,3.96,3.67,0,2.32-1.45,3.67-3.96,3.67Zm-49.55-59.2h-4.8v-21h5.85l6.6,12.6h.6v-12.6h4.8v21h-5.85l-6.6-12.6h-.6v12.6Zm30.15.3c1.88,0,3.6-.46,5.16-1.4,1.56-.93,2.79-2.21,3.69-3.85s1.35-3.49,1.35-5.55-.45-3.91-1.35-5.55-2.13-2.93-3.69-3.86c-1.56-.93-3.28-1.39-5.16-1.39s-3.6.46-5.16,1.39c-1.56.93-2.79,2.22-3.69,3.86-.9,1.64-1.35,3.49-1.35,5.55s.45,3.91,1.35,5.55c.9,1.64,2.13,2.92,3.69,3.85,1.56.93,3.28,1.4,5.16,1.4Zm-4.68-14.03c.48-.93,1.13-1.65,1.95-2.16.82-.51,1.73-.77,2.73-.77s1.91.25,2.73.77c.82.51,1.47,1.23,1.95,2.16.48.93.72,2.01.72,3.23s-.24,2.29-.72,3.22c-.48.93-1.13,1.65-1.95,2.16s-1.73.76-2.73.76-1.91-.25-2.73-.76-1.47-1.23-1.95-2.16c-.48-.93-.72-2-.72-3.22s.24-2.29.72-3.23Zm43.98-7.27h5.25l-5.1,21h-6.15l-3.15-12.6h-.6l-3.15,12.6h-6.15l-5.1-21h5.25l3,12.75h.6l3.3-12.75h5.1l3.3,12.75h.6l3-12.75Zm26.34,19.9c1.56.93,3.28,1.4,5.16,1.4s3.6-.46,5.16-1.4c1.56-.93,2.79-2.21,3.69-3.85s1.35-3.49,1.35-5.55-.45-3.91-1.35-5.55-2.13-2.93-3.69-3.86c-1.56-.93-3.28-1.39-5.16-1.39s-3.6.46-5.16,1.39c-1.56.93-2.79,2.22-3.69,3.86-.9,1.64-1.35,3.49-1.35,5.55s.45,3.91,1.35,5.55c.9,1.64,2.13,2.92,3.69,3.85Zm.48-12.63c.48-.93,1.13-1.65,1.95-2.16.82-.51,1.73-.77,2.73-.77s1.91.25,2.73.77c.82.51,1.47,1.23,1.95,2.16.48.93.72,2.01.72,3.23s-.24,2.29-.72,3.22c-.48.93-1.13,1.65-1.95,2.16s-1.73.76-2.73.76-1.91-.25-2.73-.76-1.47-1.23-1.95-2.16c-.48-.93-.72-2-.72-3.22s.24-2.29.72-3.23Zm26.58,13.73h-4.8v-21h5.85l6.6,12.6h.6v-12.6h4.8v21h-5.85l-6.6-12.6h-.6v12.6Z"/>
    </g>
  </g>
</svg>