<svg xmlns="http://www.w3.org/2000/svg" xmlns:xlink="http://www.w3.org/1999/xlink" width="500" zoomAndPan="magnify" viewBox="0 0 375 158.249993" height="211" preserveAspectRatio="xMidYMid meet" version="1.0"><defs><g/><clipPath id="b8936764e3"><path d="M 0.882812 0 L 374.113281 0 L 374.113281 157.503906 L 0.882812 157.503906 Z M 0.882812 0 " clip-rule="nonzero"/></clipPath><clipPath id="3c6307a89c"><rect x="0" width="375" y="0" height="158"/></clipPath></defs><g clip-path="url(#b8936764e3)"><g transform="matrix(1, 0, 0, 1, 0.000000000000000111, 0.000000000000000298)"><g clip-path="url(#3c6307a89c)"><g fill="#ffffff" fill-opacity="1"><g transform="translate(0.884442, 72.086604)"><g><path d="M 11.875 0 C 11.019531 0 10.378906 -0.160156 9.953125 -0.484375 C 9.535156 -0.816406 9.222656 -1.429688 9.015625 -2.328125 L 1.125 -36.921875 C 1.03125 -37.316406 0.984375 -37.613281 0.984375 -37.8125 C 0.984375 -38.914062 1.632812 -39.46875 2.9375 -39.46875 L 11.046875 -39.46875 C 12.003906 -39.46875 12.671875 -39.28125 13.046875 -38.90625 C 13.421875 -38.53125 13.679688 -37.914062 13.828125 -37.0625 L 17.0625 -20.453125 L 21.046875 -33.53125 C 21.296875 -34.28125 21.597656 -34.804688 21.953125 -35.109375 C 22.304688 -35.410156 22.859375 -35.5625 23.609375 -35.5625 L 28.046875 -35.5625 C 28.796875 -35.5625 29.34375 -35.410156 29.6875 -35.109375 C 30.039062 -34.804688 30.34375 -34.28125 30.59375 -33.53125 L 35.03125 -20.453125 L 37.8125 -37.0625 C 37.96875 -37.914062 38.234375 -38.53125 38.609375 -38.90625 C 38.984375 -39.28125 39.644531 -39.46875 40.59375 -39.46875 L 48.71875 -39.46875 C 49.96875 -39.46875 50.59375 -38.914062 50.59375 -37.8125 C 50.59375 -37.414062 50.570312 -37.117188 50.53125 -36.921875 L 42.625 -2.328125 C 42.425781 -1.429688 42.125 -0.816406 41.71875 -0.484375 C 41.320312 -0.160156 40.695312 0 39.84375 0 L 32.9375 0 C 32.175781 0 31.609375 -0.132812 31.234375 -0.40625 C 30.859375 -0.6875 30.570312 -1.175781 30.375 -1.875 L 25.796875 -17.671875 L 21.125 -1.875 C 20.925781 -1.175781 20.640625 -0.6875 20.265625 -0.40625 C 19.890625 -0.132812 19.347656 0 18.640625 0 Z M 11.875 0 "/></g></g></g><g fill="#ffffff" fill-opacity="1"><g transform="translate(47.572322, 72.086604)"><g><path d="M -34.4375 -44.0625 C -35.9375 -44.0625 -36.910156 -44.296875 -37.359375 -44.765625 C -37.816406 -45.242188 -38.046875 -46.257812 -38.046875 -47.8125 L -38.046875 -50.671875 C -38.046875 -52.222656 -37.816406 -53.238281 -37.359375 -53.71875 C -36.910156 -54.195312 -35.9375 -54.4375 -34.4375 -54.4375 L -6.921875 -54.4375 C -5.515625 -54.4375 -4.546875 -54.144531 -4.015625 -53.5625 C -3.492188 -52.988281 -3.234375 -52.023438 -3.234375 -50.671875 L -3.234375 -47.8125 C -3.234375 -46.46875 -3.492188 -45.503906 -4.015625 -44.921875 C -4.546875 -44.347656 -5.515625 -44.0625 -6.921875 -44.0625 Z M -34.4375 -44.0625 "/></g></g></g><g fill="#ffffff" fill-opacity="1"><g transform="translate(52.527167, 72.086604)"><g><path d="M 23.984375 1.125 C 17.015625 1.125 11.8125 -0.25 8.375 -3 C 4.945312 -5.757812 3.234375 -9.796875 3.234375 -15.109375 L 3.234375 -35.640625 C 3.234375 -36.941406 3.53125 -37.90625 4.125 -38.53125 C 4.726562 -39.15625 5.734375 -39.46875 7.140625 -39.46875 L 14.4375 -39.46875 C 15.882812 -39.46875 16.910156 -39.15625 17.515625 -38.53125 C 18.117188 -37.90625 18.421875 -36.941406 18.421875 -35.640625 L 18.421875 -15.34375 C 18.421875 -13.332031 18.859375 -11.875 19.734375 -10.96875 C 20.609375 -10.070312 22.023438 -9.625 23.984375 -9.625 C 25.941406 -9.625 27.359375 -10.070312 28.234375 -10.96875 C 29.109375 -11.875 29.546875 -13.332031 29.546875 -15.34375 L 29.546875 -17.890625 L 27.0625 -17.890625 C 25.957031 -17.890625 25.179688 -18.191406 24.734375 -18.796875 C 24.285156 -19.398438 24.0625 -20.328125 24.0625 -21.578125 L 24.0625 -24.59375 C 24.0625 -25.894531 24.285156 -26.832031 24.734375 -27.40625 C 25.179688 -27.976562 25.957031 -28.265625 27.0625 -28.265625 L 29.546875 -28.265625 L 29.546875 -35.640625 C 29.546875 -36.941406 29.847656 -37.90625 30.453125 -38.53125 C 31.054688 -39.15625 32.054688 -39.46875 33.453125 -39.46875 L 40.75 -39.46875 C 42.207031 -39.46875 43.25 -39.15625 43.875 -38.53125 C 44.5 -37.90625 44.8125 -36.941406 44.8125 -35.640625 L 44.8125 -28.265625 L 45.859375 -28.265625 C 46.960938 -28.265625 47.738281 -27.976562 48.1875 -27.40625 C 48.644531 -26.832031 48.875 -25.894531 48.875 -24.59375 L 48.875 -21.578125 C 48.875 -20.328125 48.644531 -19.398438 48.1875 -18.796875 C 47.738281 -18.191406 46.960938 -17.890625 45.859375 -17.890625 L 44.8125 -17.890625 L 44.8125 -15.109375 C 44.8125 -9.796875 43.082031 -5.757812 39.625 -3 C 36.164062 -0.25 30.953125 1.125 23.984375 1.125 Z M 23.984375 1.125 "/></g></g></g><g fill="#ffffff" fill-opacity="1"><g transform="translate(101.012696, 72.086604)"><g><path d="M 43.828125 1.125 C 39.316406 1.125 35.757812 -0.0351562 33.15625 -2.359375 C 30.550781 -4.691406 29.25 -8.21875 29.25 -12.9375 L 29.25 -23.765625 C 29.25 -25.816406 28.832031 -27.316406 28 -28.265625 C 27.175781 -29.222656 25.785156 -29.703125 23.828125 -29.703125 C 21.078125 -29.703125 18.945312 -29.148438 17.4375 -28.046875 L 18.265625 -26.609375 C 18.617188 -25.960938 18.867188 -25.328125 19.015625 -24.703125 C 19.171875 -24.078125 19.25 -23.3125 19.25 -22.40625 L 19.25 -12.40625 C 19.25 -11.800781 19.320312 -11.410156 19.46875 -11.234375 C 19.625 -11.066406 19.898438 -10.984375 20.296875 -10.984375 L 21.796875 -10.984375 C 22.648438 -10.984375 23.203125 -10.832031 23.453125 -10.53125 C 23.703125 -10.226562 23.828125 -9.597656 23.828125 -8.640625 L 23.828125 -2.703125 C 23.828125 -1.804688 23.6875 -1.164062 23.40625 -0.78125 C 23.132812 -0.40625 22.6875 -0.179688 22.0625 -0.109375 C 21.4375 -0.0351562 20.375 0 18.875 0 L 8.578125 0 C 5.515625 0 3.984375 -1.578125 3.984375 -4.734375 L 3.984375 -24.28125 L 2.40625 -28.265625 C 1.957031 -29.367188 1.734375 -30.296875 1.734375 -31.046875 C 1.734375 -31.953125 2.179688 -32.78125 3.078125 -33.53125 C 5.390625 -35.488281 8.398438 -37.15625 12.109375 -38.53125 C 15.816406 -39.90625 19.75 -40.59375 23.90625 -40.59375 C 37.539062 -40.59375 44.359375 -34.878906 44.359375 -23.453125 L 44.359375 -13.53125 C 44.359375 -10.625 45.960938 -9.171875 49.171875 -9.171875 C 50.722656 -9.171875 51.875 -9.570312 52.625 -10.375 C 53.382812 -11.175781 53.765625 -12.28125 53.765625 -13.6875 L 53.765625 -35.640625 C 53.765625 -36.941406 54.0625 -37.90625 54.65625 -38.53125 C 55.257812 -39.15625 56.265625 -39.46875 57.671875 -39.46875 L 64.96875 -39.46875 C 66.414062 -39.46875 67.453125 -39.15625 68.078125 -38.53125 C 68.703125 -37.90625 69.015625 -36.941406 69.015625 -35.640625 L 69.015625 -3.3125 C 69.015625 -1.101562 67.890625 0 65.640625 0 L 58.796875 0 C 57.390625 0 56.613281 -0.550781 56.46875 -1.65625 L 56.171875 -4.140625 C 54.710938 -2.378906 53.015625 -1.0625 51.078125 -0.1875 C 49.148438 0.6875 46.734375 1.125 43.828125 1.125 Z M 43.828125 1.125 "/></g></g></g><g fill="#ffffff" fill-opacity="1"><g transform="translate(173.252377, 72.086604)"><g><path d="M -11.65625 22.25 C -13.0625 22.25 -14.035156 21.960938 -14.578125 21.390625 C -15.128906 20.816406 -15.40625 19.878906 -15.40625 18.578125 L -15.40625 13.90625 L -18.046875 13.90625 C -19.046875 13.90625 -19.71875 13.703125 -20.0625 13.296875 C -20.414062 12.898438 -20.59375 12.203125 -20.59375 11.203125 L -20.59375 6.609375 C -20.59375 5.609375 -20.414062 4.90625 -20.0625 4.5 C -19.71875 4.101562 -19.046875 3.90625 -18.046875 3.90625 L -7.140625 3.90625 C -5.734375 3.90625 -4.726562 4.207031 -4.125 4.8125 C -3.53125 5.414062 -3.234375 6.367188 -3.234375 7.671875 L -3.234375 18.578125 C -3.234375 19.878906 -3.507812 20.816406 -4.0625 21.390625 C -4.613281 21.960938 -5.59375 22.25 -7 22.25 Z M -11.65625 22.25 "/></g></g></g><g fill="#ffffff" fill-opacity="1"><g transform="translate(173.252377, 72.086604)"><g><path d="M 10.453125 0 C 7.390625 0 5.859375 -1.578125 5.859375 -4.734375 L 5.859375 -34.28125 C 5.859375 -35.738281 5.734375 -36.914062 5.484375 -37.8125 C 5.234375 -38.71875 4.894531 -39.472656 4.46875 -40.078125 C 4.039062 -40.679688 3.351562 -41.457031 2.40625 -42.40625 C 1.957031 -42.757812 1.503906 -43.210938 1.046875 -43.765625 L -0.453125 -45.40625 C -0.898438 -45.914062 -1.210938 -46.40625 -1.390625 -46.875 C -1.566406 -47.351562 -1.65625 -47.992188 -1.65625 -48.796875 L -1.65625 -52.03125 C -1.65625 -53.1875 -1.378906 -54 -0.828125 -54.46875 C -0.273438 -54.945312 0.625 -55.1875 1.875 -55.1875 L 24.890625 -55.1875 C 25.941406 -55.1875 26.664062 -54.972656 27.0625 -54.546875 C 27.46875 -54.117188 27.671875 -53.40625 27.671875 -52.40625 L 27.671875 -46.921875 C 27.671875 -45.910156 27.46875 -45.203125 27.0625 -44.796875 C 26.664062 -44.398438 25.941406 -44.203125 24.890625 -44.203125 L 16.390625 -44.203125 C 18.347656 -42.648438 19.625 -41.144531 20.21875 -39.6875 C 20.820312 -38.238281 21.125 -36.238281 21.125 -33.6875 L 21.125 -12.40625 C 21.125 -11.851562 21.222656 -11.476562 21.421875 -11.28125 C 21.628906 -11.082031 21.929688 -10.984375 22.328125 -10.984375 L 23.765625 -10.984375 C 24.609375 -10.984375 25.15625 -10.832031 25.40625 -10.53125 C 25.664062 -10.226562 25.796875 -9.597656 25.796875 -8.640625 L 25.796875 -2.703125 C 25.796875 -1.804688 25.65625 -1.164062 25.375 -0.78125 C 25.101562 -0.40625 24.648438 -0.179688 24.015625 -0.109375 C 23.390625 -0.0351562 22.328125 0 20.828125 0 Z M 10.453125 0 "/></g></g></g><g fill="#ffffff" fill-opacity="1"><g transform="translate(201.441636, 72.086604)"><g><path d="M 14.8125 1.125 C 10.800781 1.125 7.617188 0.0078125 5.265625 -2.21875 C 2.910156 -4.445312 1.734375 -7.367188 1.734375 -10.984375 C 1.734375 -15.691406 3.285156 -19.046875 6.390625 -21.046875 C 9.492188 -23.054688 13.957031 -24.0625 19.78125 -24.0625 L 28.71875 -24.0625 L 28.71875 -24.890625 C 28.71875 -26.640625 28.113281 -27.925781 26.90625 -28.75 C 25.707031 -29.582031 23.53125 -30 20.375 -30 C 18.625 -30 16.882812 -29.8125 15.15625 -29.4375 C 13.425781 -29.0625 11.929688 -28.570312 10.671875 -27.96875 C 9.972656 -27.613281 9.472656 -27.4375 9.171875 -27.4375 C 8.671875 -27.4375 8.242188 -27.765625 7.890625 -28.421875 L 4.515625 -34.359375 C 4.265625 -34.765625 4.140625 -35.113281 4.140625 -35.40625 C 4.140625 -35.863281 4.488281 -36.289062 5.1875 -36.6875 C 7.289062 -37.945312 9.929688 -38.910156 13.109375 -39.578125 C 16.296875 -40.253906 19.722656 -40.59375 23.390625 -40.59375 C 30.347656 -40.59375 35.484375 -39.164062 38.796875 -36.3125 C 42.109375 -33.457031 43.765625 -29.171875 43.765625 -23.453125 L 43.765625 -3.765625 C 43.765625 -2.453125 43.460938 -1.492188 42.859375 -0.890625 C 42.253906 -0.296875 41.226562 0 39.78125 0 L 32.703125 0 C 31.253906 0 30.226562 -0.296875 29.625 -0.890625 C 29.019531 -1.492188 28.71875 -2.453125 28.71875 -3.765625 L 28.71875 -14.203125 L 20.453125 -14.203125 C 18.847656 -14.203125 17.679688 -13.976562 16.953125 -13.53125 C 16.222656 -13.082031 15.859375 -12.304688 15.859375 -11.203125 C 15.859375 -10.148438 16.117188 -9.394531 16.640625 -8.9375 C 17.171875 -8.488281 18.039062 -8.265625 19.25 -8.265625 C 20.101562 -8.265625 21.082031 -8.46875 22.1875 -8.875 C 22.332031 -8.925781 22.503906 -8.953125 22.703125 -8.953125 C 23.253906 -8.953125 23.609375 -8.597656 23.765625 -7.890625 L 24.890625 -2.1875 C 24.941406 -2.03125 24.96875 -1.828125 24.96875 -1.578125 C 24.96875 -1.222656 24.863281 -0.945312 24.65625 -0.75 C 24.457031 -0.550781 24.109375 -0.351562 23.609375 -0.15625 C 21.203125 0.695312 18.269531 1.125 14.8125 1.125 Z M 14.8125 1.125 "/></g></g></g><g fill="#ffffff" fill-opacity="1"><g transform="translate(248.423756, 72.086604)"><g><path d="M 7.96875 0 C 6.519531 0 5.492188 -0.296875 4.890625 -0.890625 C 4.285156 -1.492188 3.984375 -2.453125 3.984375 -3.765625 L 3.984375 -24.28125 L 2.40625 -28.265625 C 1.957031 -29.367188 1.734375 -30.296875 1.734375 -31.046875 C 1.734375 -31.953125 2.179688 -32.78125 3.078125 -33.53125 C 5.390625 -35.488281 8.398438 -37.15625 12.109375 -38.53125 C 15.816406 -39.90625 19.75 -40.59375 23.90625 -40.59375 C 31.226562 -40.59375 36.492188 -39.050781 39.703125 -35.96875 C 42.910156 -32.894531 44.515625 -28.722656 44.515625 -23.453125 L 44.515625 -3.765625 C 44.515625 -2.453125 44.210938 -1.492188 43.609375 -0.890625 C 43.003906 -0.296875 41.976562 0 40.53125 0 L 33.234375 0 C 31.773438 0 30.742188 -0.296875 30.140625 -0.890625 C 29.546875 -1.492188 29.25 -2.453125 29.25 -3.765625 L 29.25 -23.765625 C 29.25 -25.816406 28.832031 -27.316406 28 -28.265625 C 27.175781 -29.222656 25.785156 -29.703125 23.828125 -29.703125 C 21.078125 -29.703125 18.945312 -29.148438 17.4375 -28.046875 L 18.265625 -26.609375 C 18.617188 -25.960938 18.867188 -25.328125 19.015625 -24.703125 C 19.171875 -24.078125 19.25 -23.3125 19.25 -22.40625 L 19.25 -3.765625 C 19.25 -2.453125 18.9375 -1.492188 18.3125 -0.890625 C 17.6875 -0.296875 16.644531 0 15.1875 0 Z M 7.96875 0 "/></g></g></g><g fill="#ffffff" fill-opacity="1"><g transform="translate(99.432168, 139.976492)"><g><path d="M 11.875 0 C 11.019531 0 10.378906 -0.160156 9.953125 -0.484375 C 9.535156 -0.816406 9.222656 -1.429688 9.015625 -2.328125 L 1.125 -36.921875 C 1.03125 -37.316406 0.984375 -37.613281 0.984375 -37.8125 C 0.984375 -38.914062 1.632812 -39.46875 2.9375 -39.46875 L 11.046875 -39.46875 C 12.003906 -39.46875 12.671875 -39.28125 13.046875 -38.90625 C 13.421875 -38.53125 13.679688 -37.914062 13.828125 -37.0625 L 17.0625 -20.453125 L 21.046875 -33.53125 C 21.296875 -34.28125 21.597656 -34.804688 21.953125 -35.109375 C 22.304688 -35.410156 22.859375 -35.5625 23.609375 -35.5625 L 28.046875 -35.5625 C 28.796875 -35.5625 29.34375 -35.410156 29.6875 -35.109375 C 30.039062 -34.804688 30.34375 -34.28125 30.59375 -33.53125 L 35.03125 -20.453125 L 37.8125 -37.0625 C 37.96875 -37.914062 38.234375 -38.53125 38.609375 -38.90625 C 38.984375 -39.28125 39.644531 -39.46875 40.59375 -39.46875 L 48.71875 -39.46875 C 49.96875 -39.46875 50.59375 -38.914062 50.59375 -37.8125 C 50.59375 -37.414062 50.570312 -37.117188 50.53125 -36.921875 L 42.625 -2.328125 C 42.425781 -1.429688 42.125 -0.816406 41.71875 -0.484375 C 41.320312 -0.160156 40.695312 0 39.84375 0 L 32.9375 0 C 32.175781 0 31.609375 -0.132812 31.234375 -0.40625 C 30.859375 -0.6875 30.570312 -1.175781 30.375 -1.875 L 25.796875 -17.671875 L 21.125 -1.875 C 20.925781 -1.175781 20.640625 -0.6875 20.265625 -0.40625 C 19.890625 -0.132812 19.347656 0 18.640625 0 Z M 11.875 0 "/></g></g></g><g fill="#ffffff" fill-opacity="1"><g transform="translate(146.120049, 139.976492)"><g><path d="M -34.4375 -44.0625 C -35.9375 -44.0625 -36.910156 -44.296875 -37.359375 -44.765625 C -37.816406 -45.242188 -38.046875 -46.257812 -38.046875 -47.8125 L -38.046875 -50.671875 C -38.046875 -52.222656 -37.816406 -53.238281 -37.359375 -53.71875 C -36.910156 -54.195312 -35.9375 -54.4375 -34.4375 -54.4375 L -6.921875 -54.4375 C -5.515625 -54.4375 -4.546875 -54.144531 -4.015625 -53.5625 C -3.492188 -52.988281 -3.234375 -52.023438 -3.234375 -50.671875 L -3.234375 -47.8125 C -3.234375 -46.46875 -3.492188 -45.503906 -4.015625 -44.921875 C -4.546875 -44.347656 -5.515625 -44.0625 -6.921875 -44.0625 Z M -34.4375 -44.0625 "/></g></g></g><g fill="#ffffff" fill-opacity="1"><g transform="translate(151.074893, 139.976492)"><g><path d="M 7.21875 0 C 5.757812 0 4.726562 -0.296875 4.125 -0.890625 C 3.53125 -1.492188 3.234375 -2.453125 3.234375 -3.765625 L 3.234375 -36.09375 C 3.234375 -38.34375 4.359375 -39.46875 6.609375 -39.46875 L 13.3125 -39.46875 C 14.707031 -39.46875 15.484375 -38.894531 15.640625 -37.75 L 15.9375 -35.34375 C 19.300781 -38.84375 23.6875 -40.59375 29.09375 -40.59375 C 33.601562 -40.59375 37.210938 -39.398438 39.921875 -37.015625 C 42.628906 -34.640625 43.984375 -31.125 43.984375 -26.46875 L 43.984375 -3.765625 C 43.984375 -2.453125 43.691406 -1.492188 43.109375 -0.890625 C 42.535156 -0.296875 41.523438 0 40.078125 0 L 32.78125 0 C 31.320312 0 30.28125 -0.296875 29.65625 -0.890625 C 29.03125 -1.492188 28.71875 -2.453125 28.71875 -3.765625 L 28.71875 -25.859375 C 28.71875 -28.816406 27.164062 -30.296875 24.0625 -30.296875 C 22.300781 -30.296875 20.921875 -29.867188 19.921875 -29.015625 C 18.921875 -28.171875 18.421875 -27.070312 18.421875 -25.71875 L 18.421875 -3.765625 C 18.421875 -2.453125 18.128906 -1.492188 17.546875 -0.890625 C 16.972656 -0.296875 15.960938 0 14.515625 0 Z M 7.21875 0 "/></g></g></g><g fill="#ffffff" fill-opacity="1"><g transform="translate(198.28251, 139.976492)"><g><path d="M 22.40625 1.125 C 16.09375 1.125 11.066406 0.0078125 7.328125 -2.21875 C 3.597656 -4.445312 1.734375 -7.742188 1.734375 -12.109375 C 1.734375 -16.515625 3.335938 -19.472656 6.546875 -20.984375 C 4.984375 -21.984375 3.835938 -23.171875 3.109375 -24.546875 C 2.390625 -25.921875 2.03125 -27.613281 2.03125 -29.625 C 2.03125 -32.882812 3.191406 -35.523438 5.515625 -37.546875 C 7.847656 -39.578125 10.847656 -40.59375 14.515625 -40.59375 C 18.367188 -40.59375 21.597656 -39.867188 24.203125 -38.421875 C 24.804688 -38.066406 25.109375 -37.640625 25.109375 -37.140625 C 25.109375 -36.890625 25.035156 -36.566406 24.890625 -36.171875 L 23.078125 -31.421875 C 22.828125 -30.867188 22.53125 -30.59375 22.1875 -30.59375 C 21.976562 -30.59375 21.722656 -30.671875 21.421875 -30.828125 C 21.128906 -30.972656 20.816406 -31.109375 20.484375 -31.234375 C 20.160156 -31.359375 19.773438 -31.421875 19.328125 -31.421875 C 18.472656 -31.421875 17.804688 -31.117188 17.328125 -30.515625 C 16.847656 -29.921875 16.609375 -29.144531 16.609375 -28.1875 C 16.609375 -27.039062 16.894531 -26.203125 17.46875 -25.671875 C 18.050781 -25.148438 18.96875 -24.890625 20.21875 -24.890625 L 21.734375 -24.890625 C 22.835938 -24.890625 23.390625 -24.335938 23.390625 -23.234375 L 23.390625 -18.34375 C 23.390625 -17.1875 22.8125 -16.609375 21.65625 -16.609375 L 20.296875 -16.609375 C 19.046875 -16.609375 18.117188 -16.332031 17.515625 -15.78125 C 16.910156 -15.238281 16.609375 -14.363281 16.609375 -13.15625 C 16.609375 -10.851562 18.539062 -9.703125 22.40625 -9.703125 C 24.613281 -9.703125 26.203125 -10.203125 27.171875 -11.203125 C 28.148438 -12.203125 28.640625 -13.859375 28.640625 -16.171875 L 28.640625 -35.640625 C 28.640625 -36.941406 28.941406 -37.90625 29.546875 -38.53125 C 30.148438 -39.15625 31.15625 -39.46875 32.5625 -39.46875 L 39.84375 -39.46875 C 41.300781 -39.46875 42.34375 -39.15625 42.96875 -38.53125 C 43.59375 -37.90625 43.90625 -36.941406 43.90625 -35.640625 L 43.90625 -17 C 43.90625 -11.476562 42.222656 -7.078125 38.859375 -3.796875 C 35.503906 -0.515625 30.019531 1.125 22.40625 1.125 Z M 22.40625 1.125 "/></g></g></g><g fill="#ffffff" fill-opacity="1"><g transform="translate(245.414953, 139.976492)"><g><path d="M 19.015625 0 C 16.710938 0 15.5625 -1.101562 15.5625 -3.3125 L 15.5625 -24.140625 C 15.5625 -26.191406 15.160156 -27.644531 14.359375 -28.5 C 13.554688 -29.351562 12.253906 -29.78125 10.453125 -29.78125 C 8.546875 -29.78125 6.789062 -29.378906 5.1875 -28.578125 C 4.6875 -28.273438 4.234375 -28.125 3.828125 -28.125 C 3.328125 -28.125 3.003906 -28.421875 2.859375 -29.015625 L 0.984375 -36.171875 L 0.828125 -37.21875 C 0.828125 -37.46875 0.890625 -37.664062 1.015625 -37.8125 C 1.140625 -37.96875 1.351562 -38.117188 1.65625 -38.265625 C 5.007812 -39.816406 8.96875 -40.59375 13.53125 -40.59375 C 19.394531 -40.59375 23.742188 -39.335938 26.578125 -36.828125 C 29.410156 -34.328125 30.828125 -30.472656 30.828125 -25.265625 L 30.828125 -3.3125 C 30.828125 -1.101562 29.675781 0 27.375 0 Z M 19.015625 0 "/></g></g></g><g fill="#ffffff" fill-opacity="1"><g transform="translate(279.467582, 139.976492)"><g><path d="M 7.140625 0 C 5.691406 0 4.675781 -0.296875 4.09375 -0.890625 C 3.519531 -1.492188 3.234375 -2.453125 3.234375 -3.765625 L 3.234375 -24.28125 C 3.234375 -29.550781 4.945312 -33.585938 8.375 -36.390625 C 11.8125 -39.191406 16.914062 -40.59375 23.6875 -40.59375 C 30.445312 -40.59375 35.554688 -39.191406 39.015625 -36.390625 C 42.472656 -33.585938 44.203125 -29.550781 44.203125 -24.28125 L 44.203125 -3.765625 C 44.203125 -2.453125 43.890625 -1.492188 43.265625 -0.890625 C 42.640625 -0.296875 41.601562 0 40.15625 0 L 32.859375 0 C 31.398438 0 30.382812 -0.296875 29.8125 -0.890625 C 29.238281 -1.492188 28.953125 -2.453125 28.953125 -3.765625 L 28.953125 -23.984375 C 28.953125 -25.992188 28.535156 -27.460938 27.703125 -28.390625 C 26.878906 -29.316406 25.539062 -29.78125 23.6875 -29.78125 C 21.832031 -29.78125 20.488281 -29.316406 19.65625 -28.390625 C 18.832031 -27.460938 18.421875 -25.992188 18.421875 -23.984375 L 18.421875 -19.546875 C 19.421875 -20.753906 20.773438 -21.359375 22.484375 -21.359375 L 24.28125 -21.359375 C 24.882812 -21.359375 25.285156 -21.242188 25.484375 -21.015625 C 25.691406 -20.785156 25.796875 -20.320312 25.796875 -19.625 L 25.796875 -12.484375 C 25.796875 -11.734375 25.679688 -11.21875 25.453125 -10.9375 C 25.222656 -10.664062 24.832031 -10.53125 24.28125 -10.53125 L 22.03125 -10.53125 C 20.976562 -10.53125 20.113281 -10.148438 19.4375 -9.390625 C 18.757812 -8.640625 18.421875 -7.664062 18.421875 -6.46875 L 18.421875 -3.765625 C 18.421875 -2.453125 18.117188 -1.492188 17.515625 -0.890625 C 16.910156 -0.296875 15.882812 0 14.4375 0 Z M 7.140625 0 "/></g></g></g><g fill="#ffffff" fill-opacity="1"><g transform="translate(326.900722, 139.976492)"><g><path d="M 29.015625 1.125 C 23.703125 1.125 19.34375 -0.628906 15.9375 -4.140625 L 15.640625 -1.65625 C 15.484375 -0.550781 14.707031 0 13.3125 0 L 6.609375 0 C 4.359375 0 3.234375 -1.101562 3.234375 -3.3125 L 3.234375 -35.640625 C 3.234375 -36.941406 3.53125 -37.90625 4.125 -38.53125 C 4.726562 -39.15625 5.757812 -39.46875 7.21875 -39.46875 L 14.515625 -39.46875 C 15.910156 -39.46875 16.910156 -39.15625 17.515625 -38.53125 C 18.117188 -37.90625 18.421875 -36.941406 18.421875 -35.640625 L 18.421875 -13.6875 C 18.421875 -12.382812 18.957031 -11.304688 20.03125 -10.453125 C 21.113281 -9.597656 22.457031 -9.171875 24.0625 -9.171875 C 27.164062 -9.171875 28.71875 -10.625 28.71875 -13.53125 L 28.71875 -35.640625 C 28.71875 -36.941406 29.03125 -37.90625 29.65625 -38.53125 C 30.28125 -39.15625 31.320312 -39.46875 32.78125 -39.46875 L 40.078125 -39.46875 C 41.484375 -39.46875 42.484375 -39.15625 43.078125 -38.53125 C 43.679688 -37.90625 43.984375 -36.941406 43.984375 -35.640625 L 43.984375 -12.9375 C 43.984375 -8.269531 42.628906 -4.757812 39.921875 -2.40625 C 37.210938 -0.0507812 33.578125 1.125 29.015625 1.125 Z M 29.015625 1.125 "/></g></g></g></g></g></g></svg>